<?xml version="1.0" standalone="no"?>
<!DOCTYPE svg PUBLIC "-//W3C//DTD SVG 20010904//EN"
 "http://www.w3.org/TR/2001/REC-SVG-20010904/DTD/svg10.dtd">
<svg version="1.0" xmlns="http://www.w3.org/2000/svg"
 width="165.000000pt" height="165.000000pt" viewBox="0 0 165.000000 165.000000"
 preserveAspectRatio="xMidYMid meet">
<metadata>
Created by potrace 1.11, written by Peter Selinger 2001-2013
</metadata>
<g transform="translate(0.000000,165.000000) scale(0.100000,-0.100000)"
fill="#000000" stroke="none">
<path d="M654 1613 c-4 -20 -7 -64 -8 -97 -1 -64 -8 -73 -61 -83 -146 -28
-253 -98 -296 -195 -18 -42 -23 -71 -23 -135 0 -79 2 -85 59 -200 135 -270
292 -426 436 -432 12 -1 16 -10 15 -35 -1 -41 -3 -43 -41 -48 -42 -6 -105 -35
-133 -61 -37 -34 -50 -68 -46 -119 2 -27 -1 -48 -6 -48 -15 0 -61 -52 -76 -87
-25 -57 -21 -63 44 -63 54 0 60 2 82 32 l23 32 27 -32 26 -32 197 0 197 0 25
40 c16 25 30 38 38 34 25 -15 57 -48 57 -61 0 -9 18 -13 66 -13 l66 0 -7 36
c-9 50 -48 105 -94 134 -33 21 -38 29 -34 52 9 46 -15 96 -63 129 -24 16 -44
27 -44 24 0 -3 -8 -1 -18 4 -11 6 -45 12 -76 15 -32 2 -60 7 -63 10 -4 3 -8
30 -11 60 -4 48 -2 55 17 61 32 10 152 132 200 203 162 241 179 475 44 603
-81 76 -193 111 -361 113 -53 1 -63 4 -68 21 -21 67 -67 175 -74 175 -5 0 -12
-17 -16 -37z"/>
</g>
</svg>
